<?xml version="1.0" encoding="UTF-8"?>
<svg width="752pt" height="752pt" version="1.1" viewBox="0 0 752 752" xmlns="http://www.w3.org/2000/svg">
 <path d="m162.89 236.3c0-14.387 11.66-26.047 26.047-26.047h374.13c14.387 0 26.047 11.66 26.047 26.047 0 14.383-11.66 26.047-26.047 26.047h-374.13c-14.387 0-26.047-11.664-26.047-26.047zm0 279.41c0-14.383 11.66-26.047 26.047-26.047h374.13c14.387 0 26.047 11.664 26.047 26.047 0 14.387-11.66 26.047-26.047 26.047h-374.13c-14.387 0-26.047-11.66-26.047-26.047zm26.047-165.75c-14.387 0-26.047 11.664-26.047 26.047 0 14.387 11.66 26.047 26.047 26.047h374.13c14.387 0 26.047-11.66 26.047-26.047 0-14.383-11.66-26.047-26.047-26.047z" fill-rule="evenodd"/>
</svg>
